<mxfile host="app.diagrams.net" modified="2023-05-19T18:54:18.851Z" agent="Mozilla/5.0 (Windows NT 10.0; Win64; x64) AppleWebKit/537.36 (KHTML, like Gecko) Chrome/113.0.0.0 Safari/537.36 Edg/113.0.1774.42" etag="6DUWqw-4OE0bn3rh17kY" version="21.2.9" type="device">
  <diagram name="Page-1" id="IpyYLNEoJwkg6k5yuLsp">
    <mxGraphModel dx="2150" dy="955" grid="1" gridSize="10" guides="1" tooltips="1" connect="1" arrows="1" fold="1" page="1" pageScale="1" pageWidth="850" pageHeight="1100" math="0" shadow="0">
      <root>
        <mxCell id="0" />
        <mxCell id="1" parent="0" />
        <mxCell id="l-j2LELEC0PF97M8og0z-15" value="" style="edgeStyle=orthogonalEdgeStyle;rounded=0;orthogonalLoop=1;jettySize=auto;html=1;exitX=0.5;exitY=1;exitDx=0;exitDy=0;" edge="1" parent="1" source="l-j2LELEC0PF97M8og0z-4" target="l-j2LELEC0PF97M8og0z-13">
          <mxGeometry relative="1" as="geometry">
            <mxPoint x="420" y="30" as="sourcePoint" />
          </mxGeometry>
        </mxCell>
        <mxCell id="l-j2LELEC0PF97M8og0z-4" value="" style="ellipse;html=1;shape=startState;fillColor=#000000;strokeColor=#ff0000;" vertex="1" parent="1">
          <mxGeometry x="405" y="10" width="30" height="30" as="geometry" />
        </mxCell>
        <mxCell id="l-j2LELEC0PF97M8og0z-46" value="" style="edgeStyle=orthogonalEdgeStyle;rounded=0;orthogonalLoop=1;jettySize=auto;html=1;" edge="1" parent="1" source="l-j2LELEC0PF97M8og0z-6" target="l-j2LELEC0PF97M8og0z-25">
          <mxGeometry relative="1" as="geometry">
            <Array as="points">
              <mxPoint x="90" y="230" />
              <mxPoint x="90" y="230" />
            </Array>
          </mxGeometry>
        </mxCell>
        <mxCell id="l-j2LELEC0PF97M8og0z-6" value="Admin" style="html=1;whiteSpace=wrap;" vertex="1" parent="1">
          <mxGeometry x="50" y="190" width="90" height="30" as="geometry" />
        </mxCell>
        <mxCell id="l-j2LELEC0PF97M8og0z-47" value="" style="edgeStyle=orthogonalEdgeStyle;rounded=0;orthogonalLoop=1;jettySize=auto;html=1;" edge="1" parent="1" source="l-j2LELEC0PF97M8og0z-7" target="l-j2LELEC0PF97M8og0z-26">
          <mxGeometry relative="1" as="geometry">
            <Array as="points">
              <mxPoint x="420" y="245" />
              <mxPoint x="430" y="245" />
            </Array>
          </mxGeometry>
        </mxCell>
        <mxCell id="l-j2LELEC0PF97M8og0z-7" value="Student" style="html=1;whiteSpace=wrap;" vertex="1" parent="1">
          <mxGeometry x="380" y="190" width="80" height="30" as="geometry" />
        </mxCell>
        <mxCell id="l-j2LELEC0PF97M8og0z-48" value="" style="edgeStyle=orthogonalEdgeStyle;rounded=0;orthogonalLoop=1;jettySize=auto;html=1;" edge="1" parent="1" source="l-j2LELEC0PF97M8og0z-8" target="l-j2LELEC0PF97M8og0z-35">
          <mxGeometry relative="1" as="geometry" />
        </mxCell>
        <mxCell id="l-j2LELEC0PF97M8og0z-8" value="Coordinator" style="html=1;whiteSpace=wrap;" vertex="1" parent="1">
          <mxGeometry x="670" y="190" width="80" height="30" as="geometry" />
        </mxCell>
        <mxCell id="l-j2LELEC0PF97M8og0z-18" value="" style="edgeStyle=orthogonalEdgeStyle;rounded=0;orthogonalLoop=1;jettySize=auto;html=1;" edge="1" parent="1" source="l-j2LELEC0PF97M8og0z-13" target="l-j2LELEC0PF97M8og0z-6">
          <mxGeometry relative="1" as="geometry">
            <Array as="points">
              <mxPoint x="420" y="120" />
              <mxPoint x="95" y="120" />
            </Array>
          </mxGeometry>
        </mxCell>
        <mxCell id="l-j2LELEC0PF97M8og0z-22" value="" style="edgeStyle=orthogonalEdgeStyle;rounded=0;orthogonalLoop=1;jettySize=auto;html=1;" edge="1" parent="1" source="l-j2LELEC0PF97M8og0z-13" target="l-j2LELEC0PF97M8og0z-8">
          <mxGeometry relative="1" as="geometry">
            <mxPoint x="660" y="95" as="targetPoint" />
            <Array as="points">
              <mxPoint x="420" y="120" />
              <mxPoint x="710" y="120" />
            </Array>
          </mxGeometry>
        </mxCell>
        <mxCell id="l-j2LELEC0PF97M8og0z-23" value="" style="edgeStyle=orthogonalEdgeStyle;rounded=0;orthogonalLoop=1;jettySize=auto;html=1;" edge="1" parent="1" source="l-j2LELEC0PF97M8og0z-13" target="l-j2LELEC0PF97M8og0z-7">
          <mxGeometry relative="1" as="geometry" />
        </mxCell>
        <mxCell id="l-j2LELEC0PF97M8og0z-13" value="" style="shape=line;html=1;strokeWidth=6;strokeColor=#000000;" vertex="1" parent="1">
          <mxGeometry x="320" y="80" width="200" height="10" as="geometry" />
        </mxCell>
        <mxCell id="l-j2LELEC0PF97M8og0z-42" value="" style="edgeStyle=orthogonalEdgeStyle;rounded=0;orthogonalLoop=1;jettySize=auto;html=1;" edge="1" parent="1" source="l-j2LELEC0PF97M8og0z-25" target="l-j2LELEC0PF97M8og0z-31">
          <mxGeometry relative="1" as="geometry" />
        </mxCell>
        <mxCell id="l-j2LELEC0PF97M8og0z-25" value="Login&amp;nbsp;" style="rounded=1;whiteSpace=wrap;html=1;labelBackgroundColor=none;" vertex="1" parent="1">
          <mxGeometry x="50" y="270" width="80" height="40" as="geometry" />
        </mxCell>
        <mxCell id="l-j2LELEC0PF97M8og0z-53" value="" style="edgeStyle=orthogonalEdgeStyle;rounded=0;orthogonalLoop=1;jettySize=auto;html=1;" edge="1" parent="1" source="l-j2LELEC0PF97M8og0z-26" target="l-j2LELEC0PF97M8og0z-50">
          <mxGeometry relative="1" as="geometry" />
        </mxCell>
        <mxCell id="l-j2LELEC0PF97M8og0z-26" value="Register / Login" style="rounded=1;whiteSpace=wrap;html=1;labelBackgroundColor=none;" vertex="1" parent="1">
          <mxGeometry x="380" y="270" width="105" height="40" as="geometry" />
        </mxCell>
        <mxCell id="l-j2LELEC0PF97M8og0z-39" value="" style="edgeStyle=orthogonalEdgeStyle;rounded=0;orthogonalLoop=1;jettySize=auto;html=1;" edge="1" parent="1" source="l-j2LELEC0PF97M8og0z-31" target="l-j2LELEC0PF97M8og0z-38">
          <mxGeometry relative="1" as="geometry" />
        </mxCell>
        <mxCell id="l-j2LELEC0PF97M8og0z-68" value="" style="edgeStyle=orthogonalEdgeStyle;rounded=0;orthogonalLoop=1;jettySize=auto;html=1;" edge="1" parent="1" source="l-j2LELEC0PF97M8og0z-31" target="l-j2LELEC0PF97M8og0z-65">
          <mxGeometry relative="1" as="geometry" />
        </mxCell>
        <mxCell id="l-j2LELEC0PF97M8og0z-31" value="Check LoginId / Password ?" style="rhombus;whiteSpace=wrap;html=1;fontColor=#000000;fillColor=#FFFFFF;strokeColor=#000000;" vertex="1" parent="1">
          <mxGeometry x="20" y="370" width="140" height="70" as="geometry" />
        </mxCell>
        <mxCell id="l-j2LELEC0PF97M8og0z-60" value="" style="edgeStyle=orthogonalEdgeStyle;rounded=0;orthogonalLoop=1;jettySize=auto;html=1;" edge="1" parent="1" source="l-j2LELEC0PF97M8og0z-35" target="l-j2LELEC0PF97M8og0z-57">
          <mxGeometry relative="1" as="geometry" />
        </mxCell>
        <mxCell id="l-j2LELEC0PF97M8og0z-35" value="Register / Login" style="rounded=1;whiteSpace=wrap;html=1;labelBackgroundColor=none;" vertex="1" parent="1">
          <mxGeometry x="670" y="270" width="105" height="40" as="geometry" />
        </mxCell>
        <mxCell id="l-j2LELEC0PF97M8og0z-41" value="" style="edgeStyle=orthogonalEdgeStyle;rounded=0;orthogonalLoop=1;jettySize=auto;html=1;entryX=1;entryY=0.5;entryDx=0;entryDy=0;" edge="1" parent="1" source="l-j2LELEC0PF97M8og0z-38" target="l-j2LELEC0PF97M8og0z-25">
          <mxGeometry relative="1" as="geometry">
            <mxPoint x="260" y="325" as="targetPoint" />
            <Array as="points">
              <mxPoint x="250" y="290" />
            </Array>
          </mxGeometry>
        </mxCell>
        <mxCell id="l-j2LELEC0PF97M8og0z-38" value="Invalid Credintials" style="rounded=1;whiteSpace=wrap;html=1;labelBackgroundColor=none;" vertex="1" parent="1">
          <mxGeometry x="210" y="390" width="80" height="30" as="geometry" />
        </mxCell>
        <mxCell id="l-j2LELEC0PF97M8og0z-44" value="Invalid" style="text;html=1;align=center;verticalAlign=middle;resizable=0;points=[];autosize=1;strokeColor=none;fillColor=none;" vertex="1" parent="1">
          <mxGeometry x="150" y="380" width="60" height="30" as="geometry" />
        </mxCell>
        <mxCell id="l-j2LELEC0PF97M8og0z-49" value="" style="edgeStyle=orthogonalEdgeStyle;rounded=0;orthogonalLoop=1;jettySize=auto;html=1;" edge="1" parent="1" source="l-j2LELEC0PF97M8og0z-50" target="l-j2LELEC0PF97M8og0z-51">
          <mxGeometry relative="1" as="geometry" />
        </mxCell>
        <mxCell id="l-j2LELEC0PF97M8og0z-66" value="" style="edgeStyle=orthogonalEdgeStyle;rounded=0;orthogonalLoop=1;jettySize=auto;html=1;" edge="1" parent="1" source="l-j2LELEC0PF97M8og0z-50" target="l-j2LELEC0PF97M8og0z-63">
          <mxGeometry relative="1" as="geometry" />
        </mxCell>
        <mxCell id="l-j2LELEC0PF97M8og0z-50" value="Check LoginId / Password ?" style="rhombus;whiteSpace=wrap;html=1;fontColor=#000000;fillColor=#FFFFFF;strokeColor=#000000;" vertex="1" parent="1">
          <mxGeometry x="362.5" y="370" width="140" height="70" as="geometry" />
        </mxCell>
        <mxCell id="l-j2LELEC0PF97M8og0z-55" value="" style="edgeStyle=orthogonalEdgeStyle;rounded=0;orthogonalLoop=1;jettySize=auto;html=1;entryX=1;entryY=0.5;entryDx=0;entryDy=0;" edge="1" parent="1" source="l-j2LELEC0PF97M8og0z-51" target="l-j2LELEC0PF97M8og0z-26">
          <mxGeometry relative="1" as="geometry">
            <mxPoint x="590" y="325" as="targetPoint" />
            <Array as="points">
              <mxPoint x="590" y="290" />
            </Array>
          </mxGeometry>
        </mxCell>
        <mxCell id="l-j2LELEC0PF97M8og0z-51" value="Invalid Credintials" style="rounded=1;whiteSpace=wrap;html=1;labelBackgroundColor=none;" vertex="1" parent="1">
          <mxGeometry x="550" y="390" width="80" height="30" as="geometry" />
        </mxCell>
        <mxCell id="l-j2LELEC0PF97M8og0z-52" value="Invalid" style="text;html=1;align=center;verticalAlign=middle;resizable=0;points=[];autosize=1;strokeColor=none;fillColor=none;" vertex="1" parent="1">
          <mxGeometry x="490" y="380" width="60" height="30" as="geometry" />
        </mxCell>
        <mxCell id="l-j2LELEC0PF97M8og0z-56" value="" style="edgeStyle=orthogonalEdgeStyle;rounded=0;orthogonalLoop=1;jettySize=auto;html=1;" edge="1" parent="1" source="l-j2LELEC0PF97M8og0z-57" target="l-j2LELEC0PF97M8og0z-58">
          <mxGeometry relative="1" as="geometry" />
        </mxCell>
        <mxCell id="l-j2LELEC0PF97M8og0z-67" value="" style="edgeStyle=orthogonalEdgeStyle;rounded=0;orthogonalLoop=1;jettySize=auto;html=1;" edge="1" parent="1" source="l-j2LELEC0PF97M8og0z-57" target="l-j2LELEC0PF97M8og0z-64">
          <mxGeometry relative="1" as="geometry" />
        </mxCell>
        <mxCell id="l-j2LELEC0PF97M8og0z-57" value="Check LoginId / Password ?" style="rhombus;whiteSpace=wrap;html=1;fontColor=#000000;fillColor=#FFFFFF;strokeColor=#000000;" vertex="1" parent="1">
          <mxGeometry x="652.5" y="370" width="140" height="70" as="geometry" />
        </mxCell>
        <mxCell id="l-j2LELEC0PF97M8og0z-62" value="" style="edgeStyle=orthogonalEdgeStyle;rounded=0;orthogonalLoop=1;jettySize=auto;html=1;entryX=1;entryY=0.5;entryDx=0;entryDy=0;" edge="1" parent="1" source="l-j2LELEC0PF97M8og0z-58" target="l-j2LELEC0PF97M8og0z-35">
          <mxGeometry relative="1" as="geometry">
            <mxPoint x="897.5" y="305" as="targetPoint" />
            <Array as="points">
              <mxPoint x="890" y="290" />
            </Array>
          </mxGeometry>
        </mxCell>
        <mxCell id="l-j2LELEC0PF97M8og0z-58" value="Invalid Credintials" style="rounded=1;whiteSpace=wrap;html=1;labelBackgroundColor=none;" vertex="1" parent="1">
          <mxGeometry x="857.5" y="390" width="80" height="30" as="geometry" />
        </mxCell>
        <mxCell id="l-j2LELEC0PF97M8og0z-59" value="Invalid" style="text;html=1;align=center;verticalAlign=middle;resizable=0;points=[];autosize=1;strokeColor=none;fillColor=none;" vertex="1" parent="1">
          <mxGeometry x="790" y="380" width="60" height="30" as="geometry" />
        </mxCell>
        <mxCell id="l-j2LELEC0PF97M8og0z-88" value="" style="edgeStyle=orthogonalEdgeStyle;rounded=0;orthogonalLoop=1;jettySize=auto;html=1;" edge="1" parent="1" source="l-j2LELEC0PF97M8og0z-63" target="l-j2LELEC0PF97M8og0z-86">
          <mxGeometry relative="1" as="geometry" />
        </mxCell>
        <mxCell id="l-j2LELEC0PF97M8og0z-63" value="Login Successful" style="rounded=1;whiteSpace=wrap;html=1;labelBackgroundColor=none;" vertex="1" parent="1">
          <mxGeometry x="392.5" y="500" width="80" height="30" as="geometry" />
        </mxCell>
        <mxCell id="l-j2LELEC0PF97M8og0z-136" value="" style="edgeStyle=orthogonalEdgeStyle;rounded=0;orthogonalLoop=1;jettySize=auto;html=1;" edge="1" parent="1" source="l-j2LELEC0PF97M8og0z-64" target="l-j2LELEC0PF97M8og0z-119">
          <mxGeometry relative="1" as="geometry">
            <mxPoint x="842.5" y="514.9999999999998" as="targetPoint" />
            <Array as="points">
              <mxPoint x="726" y="550" />
              <mxPoint x="726" y="550" />
            </Array>
          </mxGeometry>
        </mxCell>
        <mxCell id="l-j2LELEC0PF97M8og0z-64" value="Login Successful" style="rounded=1;whiteSpace=wrap;html=1;labelBackgroundColor=none;" vertex="1" parent="1">
          <mxGeometry x="682.5" y="500" width="80" height="30" as="geometry" />
        </mxCell>
        <mxCell id="l-j2LELEC0PF97M8og0z-155" value="" style="edgeStyle=orthogonalEdgeStyle;rounded=0;orthogonalLoop=1;jettySize=auto;html=1;" edge="1" parent="1" source="l-j2LELEC0PF97M8og0z-65" target="l-j2LELEC0PF97M8og0z-145">
          <mxGeometry relative="1" as="geometry">
            <mxPoint x="90" y="560" as="targetPoint" />
          </mxGeometry>
        </mxCell>
        <mxCell id="l-j2LELEC0PF97M8og0z-65" value="Login Successful" style="rounded=1;whiteSpace=wrap;html=1;labelBackgroundColor=none;" vertex="1" parent="1">
          <mxGeometry x="50" y="500" width="80" height="30" as="geometry" />
        </mxCell>
        <mxCell id="l-j2LELEC0PF97M8og0z-69" value="Valid" style="text;html=1;align=center;verticalAlign=middle;resizable=0;points=[];autosize=1;strokeColor=none;fillColor=none;" vertex="1" parent="1">
          <mxGeometry x="80" y="440" width="50" height="30" as="geometry" />
        </mxCell>
        <mxCell id="l-j2LELEC0PF97M8og0z-70" value="Valid&lt;br&gt;" style="text;html=1;align=center;verticalAlign=middle;resizable=0;points=[];autosize=1;strokeColor=none;fillColor=none;" vertex="1" parent="1">
          <mxGeometry x="422.5" y="440" width="50" height="30" as="geometry" />
        </mxCell>
        <mxCell id="l-j2LELEC0PF97M8og0z-71" value="Valid" style="text;html=1;align=center;verticalAlign=middle;resizable=0;points=[];autosize=1;strokeColor=none;fillColor=none;" vertex="1" parent="1">
          <mxGeometry x="712.5" y="450" width="50" height="30" as="geometry" />
        </mxCell>
        <mxCell id="l-j2LELEC0PF97M8og0z-104" value="" style="edgeStyle=orthogonalEdgeStyle;rounded=0;orthogonalLoop=1;jettySize=auto;html=1;entryX=0.5;entryY=0;entryDx=0;entryDy=0;" edge="1" parent="1" source="l-j2LELEC0PF97M8og0z-86" target="l-j2LELEC0PF97M8og0z-105">
          <mxGeometry relative="1" as="geometry" />
        </mxCell>
        <mxCell id="l-j2LELEC0PF97M8og0z-86" value="Show Dashboard" style="rounded=1;whiteSpace=wrap;html=1;labelBackgroundColor=none;" vertex="1" parent="1">
          <mxGeometry x="392.5" y="580" width="80" height="30" as="geometry" />
        </mxCell>
        <mxCell id="l-j2LELEC0PF97M8og0z-98" value="" style="edgeStyle=orthogonalEdgeStyle;rounded=0;orthogonalLoop=1;jettySize=auto;html=1;" edge="1" parent="1" source="l-j2LELEC0PF97M8og0z-91" target="l-j2LELEC0PF97M8og0z-94">
          <mxGeometry relative="1" as="geometry" />
        </mxCell>
        <mxCell id="l-j2LELEC0PF97M8og0z-112" value="" style="edgeStyle=orthogonalEdgeStyle;rounded=0;orthogonalLoop=1;jettySize=auto;html=1;" edge="1" parent="1" source="l-j2LELEC0PF97M8og0z-91" target="l-j2LELEC0PF97M8og0z-111">
          <mxGeometry relative="1" as="geometry" />
        </mxCell>
        <mxCell id="l-j2LELEC0PF97M8og0z-91" value="Check Eligibility ?" style="rhombus;whiteSpace=wrap;html=1;fontColor=#000000;fillColor=#FFFFFF;strokeColor=#000000;" vertex="1" parent="1">
          <mxGeometry x="376.25" y="790" width="112.5" height="50" as="geometry" />
        </mxCell>
        <mxCell id="l-j2LELEC0PF97M8og0z-108" value="" style="edgeStyle=orthogonalEdgeStyle;rounded=0;orthogonalLoop=1;jettySize=auto;html=1;" edge="1" parent="1" source="l-j2LELEC0PF97M8og0z-93" target="l-j2LELEC0PF97M8og0z-91">
          <mxGeometry relative="1" as="geometry" />
        </mxCell>
        <mxCell id="l-j2LELEC0PF97M8og0z-93" value="Show Active Jobs" style="rounded=1;whiteSpace=wrap;html=1;labelBackgroundColor=none;" vertex="1" parent="1">
          <mxGeometry x="392.5" y="710" width="80" height="30" as="geometry" />
        </mxCell>
        <mxCell id="l-j2LELEC0PF97M8og0z-175" value="" style="edgeStyle=orthogonalEdgeStyle;rounded=0;orthogonalLoop=1;jettySize=auto;html=1;entryX=0.491;entryY=0.46;entryDx=0;entryDy=0;entryPerimeter=0;" edge="1" parent="1" source="l-j2LELEC0PF97M8og0z-94" target="l-j2LELEC0PF97M8og0z-167">
          <mxGeometry relative="1" as="geometry">
            <mxPoint x="433" y="1000" as="targetPoint" />
          </mxGeometry>
        </mxCell>
        <mxCell id="l-j2LELEC0PF97M8og0z-94" value="Apply for Job" style="rounded=1;whiteSpace=wrap;html=1;labelBackgroundColor=none;" vertex="1" parent="1">
          <mxGeometry x="392.5" y="900" width="80" height="30" as="geometry" />
        </mxCell>
        <mxCell id="l-j2LELEC0PF97M8og0z-107" value="" style="edgeStyle=orthogonalEdgeStyle;rounded=0;orthogonalLoop=1;jettySize=auto;html=1;" edge="1" parent="1" source="l-j2LELEC0PF97M8og0z-105" target="l-j2LELEC0PF97M8og0z-93">
          <mxGeometry relative="1" as="geometry" />
        </mxCell>
        <mxCell id="l-j2LELEC0PF97M8og0z-105" value="Update Profile" style="rounded=1;whiteSpace=wrap;html=1;labelBackgroundColor=none;" vertex="1" parent="1">
          <mxGeometry x="392.5" y="650" width="80" height="30" as="geometry" />
        </mxCell>
        <mxCell id="l-j2LELEC0PF97M8og0z-114" value="" style="edgeStyle=orthogonalEdgeStyle;rounded=0;orthogonalLoop=1;jettySize=auto;html=1;entryX=1;entryY=0.25;entryDx=0;entryDy=0;" edge="1" parent="1" source="l-j2LELEC0PF97M8og0z-111" target="l-j2LELEC0PF97M8og0z-93">
          <mxGeometry relative="1" as="geometry">
            <mxPoint x="590" y="720" as="targetPoint" />
            <Array as="points">
              <mxPoint x="580" y="718" />
            </Array>
          </mxGeometry>
        </mxCell>
        <mxCell id="l-j2LELEC0PF97M8og0z-111" value="See other Jobs" style="rounded=1;whiteSpace=wrap;html=1;labelBackgroundColor=none;" vertex="1" parent="1">
          <mxGeometry x="540" y="800" width="80" height="30" as="geometry" />
        </mxCell>
        <mxCell id="l-j2LELEC0PF97M8og0z-115" value="No" style="text;html=1;align=center;verticalAlign=middle;resizable=0;points=[];autosize=1;strokeColor=none;fillColor=none;" vertex="1" parent="1">
          <mxGeometry x="490" y="788" width="40" height="30" as="geometry" />
        </mxCell>
        <mxCell id="l-j2LELEC0PF97M8og0z-116" value="Yes" style="text;html=1;align=center;verticalAlign=middle;resizable=0;points=[];autosize=1;strokeColor=none;fillColor=none;" vertex="1" parent="1">
          <mxGeometry x="427.5" y="840" width="40" height="30" as="geometry" />
        </mxCell>
        <mxCell id="l-j2LELEC0PF97M8og0z-118" value="" style="edgeStyle=orthogonalEdgeStyle;rounded=0;orthogonalLoop=1;jettySize=auto;html=1;entryX=0.5;entryY=0;entryDx=0;entryDy=0;" edge="1" parent="1" source="l-j2LELEC0PF97M8og0z-119" target="l-j2LELEC0PF97M8og0z-127">
          <mxGeometry relative="1" as="geometry" />
        </mxCell>
        <mxCell id="l-j2LELEC0PF97M8og0z-119" value="Show Dashboard" style="rounded=1;whiteSpace=wrap;html=1;labelBackgroundColor=none;" vertex="1" parent="1">
          <mxGeometry x="686.25" y="580" width="80" height="30" as="geometry" />
        </mxCell>
        <mxCell id="l-j2LELEC0PF97M8og0z-123" value="" style="edgeStyle=orthogonalEdgeStyle;rounded=0;orthogonalLoop=1;jettySize=auto;html=1;entryX=0.5;entryY=0;entryDx=0;entryDy=0;" edge="1" parent="1" source="l-j2LELEC0PF97M8og0z-124" target="l-j2LELEC0PF97M8og0z-137">
          <mxGeometry relative="1" as="geometry">
            <mxPoint x="725" y="789.9999999999998" as="targetPoint" />
          </mxGeometry>
        </mxCell>
        <mxCell id="l-j2LELEC0PF97M8og0z-124" value="Add Job" style="rounded=1;whiteSpace=wrap;html=1;labelBackgroundColor=none;" vertex="1" parent="1">
          <mxGeometry x="686.25" y="710" width="80" height="30" as="geometry" />
        </mxCell>
        <mxCell id="l-j2LELEC0PF97M8og0z-126" value="" style="edgeStyle=orthogonalEdgeStyle;rounded=0;orthogonalLoop=1;jettySize=auto;html=1;" edge="1" parent="1" source="l-j2LELEC0PF97M8og0z-127" target="l-j2LELEC0PF97M8og0z-124">
          <mxGeometry relative="1" as="geometry" />
        </mxCell>
        <mxCell id="l-j2LELEC0PF97M8og0z-127" value="Update Profile" style="rounded=1;whiteSpace=wrap;html=1;labelBackgroundColor=none;" vertex="1" parent="1">
          <mxGeometry x="686.25" y="650" width="80" height="30" as="geometry" />
        </mxCell>
        <mxCell id="l-j2LELEC0PF97M8og0z-144" value="" style="edgeStyle=orthogonalEdgeStyle;rounded=0;orthogonalLoop=1;jettySize=auto;html=1;" edge="1" parent="1" source="l-j2LELEC0PF97M8og0z-129" target="l-j2LELEC0PF97M8og0z-139">
          <mxGeometry relative="1" as="geometry" />
        </mxCell>
        <mxCell id="l-j2LELEC0PF97M8og0z-129" value="See Applications" style="rounded=1;whiteSpace=wrap;html=1;labelBackgroundColor=none;" vertex="1" parent="1">
          <mxGeometry x="686.25" y="860" width="80" height="30" as="geometry" />
        </mxCell>
        <mxCell id="l-j2LELEC0PF97M8og0z-142" value="" style="edgeStyle=orthogonalEdgeStyle;rounded=0;orthogonalLoop=1;jettySize=auto;html=1;" edge="1" parent="1" source="l-j2LELEC0PF97M8og0z-137" target="l-j2LELEC0PF97M8og0z-129">
          <mxGeometry relative="1" as="geometry">
            <mxPoint x="726" y="850" as="targetPoint" />
          </mxGeometry>
        </mxCell>
        <mxCell id="l-j2LELEC0PF97M8og0z-137" value="Manage Job" style="rounded=1;whiteSpace=wrap;html=1;labelBackgroundColor=none;" vertex="1" parent="1">
          <mxGeometry x="686.25" y="788" width="80" height="30" as="geometry" />
        </mxCell>
        <mxCell id="l-j2LELEC0PF97M8og0z-176" value="" style="edgeStyle=orthogonalEdgeStyle;rounded=0;orthogonalLoop=1;jettySize=auto;html=1;" edge="1" parent="1" source="l-j2LELEC0PF97M8og0z-139" target="l-j2LELEC0PF97M8og0z-167">
          <mxGeometry relative="1" as="geometry">
            <Array as="points">
              <mxPoint x="726" y="990" />
              <mxPoint x="510" y="990" />
            </Array>
          </mxGeometry>
        </mxCell>
        <mxCell id="l-j2LELEC0PF97M8og0z-139" value="Download Resume" style="rounded=1;whiteSpace=wrap;html=1;labelBackgroundColor=none;" vertex="1" parent="1">
          <mxGeometry x="686.25" y="930" width="80" height="30" as="geometry" />
        </mxCell>
        <mxCell id="l-j2LELEC0PF97M8og0z-156" value="" style="edgeStyle=orthogonalEdgeStyle;rounded=0;orthogonalLoop=1;jettySize=auto;html=1;" edge="1" parent="1" source="l-j2LELEC0PF97M8og0z-145" target="l-j2LELEC0PF97M8og0z-148">
          <mxGeometry relative="1" as="geometry" />
        </mxCell>
        <mxCell id="l-j2LELEC0PF97M8og0z-145" value="Show Dashboard" style="rounded=1;whiteSpace=wrap;html=1;labelBackgroundColor=none;" vertex="1" parent="1">
          <mxGeometry x="50" y="580" width="80" height="30" as="geometry" />
        </mxCell>
        <mxCell id="l-j2LELEC0PF97M8og0z-166" value="" style="edgeStyle=orthogonalEdgeStyle;rounded=0;orthogonalLoop=1;jettySize=auto;html=1;entryX=1;entryY=0.5;entryDx=0;entryDy=0;" edge="1" parent="1" source="l-j2LELEC0PF97M8og0z-146" target="l-j2LELEC0PF97M8og0z-145">
          <mxGeometry relative="1" as="geometry">
            <mxPoint x="250" y="589.9999999999998" as="targetPoint" />
            <Array as="points">
              <mxPoint x="250" y="595" />
            </Array>
          </mxGeometry>
        </mxCell>
        <mxCell id="l-j2LELEC0PF97M8og0z-146" value="Provoke Access" style="rounded=1;whiteSpace=wrap;html=1;labelBackgroundColor=none;" vertex="1" parent="1">
          <mxGeometry x="210" y="670" width="80" height="30" as="geometry" />
        </mxCell>
        <mxCell id="l-j2LELEC0PF97M8og0z-152" value="" style="edgeStyle=orthogonalEdgeStyle;rounded=0;orthogonalLoop=1;jettySize=auto;html=1;" edge="1" parent="1" source="l-j2LELEC0PF97M8og0z-148" target="l-j2LELEC0PF97M8og0z-146">
          <mxGeometry relative="1" as="geometry" />
        </mxCell>
        <mxCell id="l-j2LELEC0PF97M8og0z-153" value="" style="edgeStyle=orthogonalEdgeStyle;rounded=0;orthogonalLoop=1;jettySize=auto;html=1;" edge="1" parent="1" source="l-j2LELEC0PF97M8og0z-148" target="l-j2LELEC0PF97M8og0z-151">
          <mxGeometry relative="1" as="geometry" />
        </mxCell>
        <mxCell id="l-j2LELEC0PF97M8og0z-148" value="Validate Registered User?" style="rhombus;whiteSpace=wrap;html=1;fontColor=#000000;fillColor=#FFFFFF;strokeColor=#000000;" vertex="1" parent="1">
          <mxGeometry x="20" y="650" width="140" height="70" as="geometry" />
        </mxCell>
        <mxCell id="l-j2LELEC0PF97M8og0z-162" value="" style="edgeStyle=orthogonalEdgeStyle;rounded=0;orthogonalLoop=1;jettySize=auto;html=1;" edge="1" parent="1" source="l-j2LELEC0PF97M8og0z-151" target="l-j2LELEC0PF97M8og0z-161">
          <mxGeometry relative="1" as="geometry" />
        </mxCell>
        <mxCell id="l-j2LELEC0PF97M8og0z-151" value="Grant Access&amp;nbsp;" style="rounded=1;whiteSpace=wrap;html=1;labelBackgroundColor=none;" vertex="1" parent="1">
          <mxGeometry x="50" y="770" width="80" height="30" as="geometry" />
        </mxCell>
        <mxCell id="l-j2LELEC0PF97M8og0z-157" value="No" style="text;html=1;align=center;verticalAlign=middle;resizable=0;points=[];autosize=1;strokeColor=none;fillColor=none;" vertex="1" parent="1">
          <mxGeometry x="150" y="660" width="40" height="30" as="geometry" />
        </mxCell>
        <mxCell id="l-j2LELEC0PF97M8og0z-160" value="Yes" style="text;html=1;align=center;verticalAlign=middle;resizable=0;points=[];autosize=1;strokeColor=none;fillColor=none;" vertex="1" parent="1">
          <mxGeometry x="85" y="720" width="40" height="30" as="geometry" />
        </mxCell>
        <mxCell id="l-j2LELEC0PF97M8og0z-164" value="" style="edgeStyle=orthogonalEdgeStyle;rounded=0;orthogonalLoop=1;jettySize=auto;html=1;" edge="1" parent="1" source="l-j2LELEC0PF97M8og0z-161" target="l-j2LELEC0PF97M8og0z-163">
          <mxGeometry relative="1" as="geometry" />
        </mxCell>
        <mxCell id="l-j2LELEC0PF97M8og0z-161" value="Manage User Profiles" style="rounded=1;whiteSpace=wrap;html=1;labelBackgroundColor=none;" vertex="1" parent="1">
          <mxGeometry x="50" y="850" width="80" height="30" as="geometry" />
        </mxCell>
        <mxCell id="l-j2LELEC0PF97M8og0z-168" value="" style="edgeStyle=orthogonalEdgeStyle;rounded=0;orthogonalLoop=1;jettySize=auto;html=1;" edge="1" parent="1" source="l-j2LELEC0PF97M8og0z-163" target="l-j2LELEC0PF97M8og0z-167">
          <mxGeometry relative="1" as="geometry">
            <Array as="points">
              <mxPoint x="90" y="990" />
              <mxPoint x="370" y="990" />
            </Array>
          </mxGeometry>
        </mxCell>
        <mxCell id="l-j2LELEC0PF97M8og0z-163" value="Manage Active Jobs" style="rounded=1;whiteSpace=wrap;html=1;labelBackgroundColor=none;" vertex="1" parent="1">
          <mxGeometry x="50" y="930" width="80" height="30" as="geometry" />
        </mxCell>
        <mxCell id="l-j2LELEC0PF97M8og0z-182" value="" style="edgeStyle=orthogonalEdgeStyle;rounded=0;orthogonalLoop=1;jettySize=auto;html=1;" edge="1" parent="1" source="l-j2LELEC0PF97M8og0z-167" target="l-j2LELEC0PF97M8og0z-181">
          <mxGeometry relative="1" as="geometry">
            <Array as="points">
              <mxPoint x="435" y="1110" />
              <mxPoint x="435" y="1110" />
            </Array>
          </mxGeometry>
        </mxCell>
        <mxCell id="l-j2LELEC0PF97M8og0z-167" value="" style="shape=line;html=1;strokeWidth=6;strokeColor=#000000;" vertex="1" parent="1">
          <mxGeometry x="275" y="1030" width="320" height="10" as="geometry" />
        </mxCell>
        <mxCell id="l-j2LELEC0PF97M8og0z-184" value="" style="edgeStyle=orthogonalEdgeStyle;rounded=0;orthogonalLoop=1;jettySize=auto;html=1;" edge="1" parent="1" source="l-j2LELEC0PF97M8og0z-181" target="l-j2LELEC0PF97M8og0z-183">
          <mxGeometry relative="1" as="geometry" />
        </mxCell>
        <mxCell id="l-j2LELEC0PF97M8og0z-181" value="Logout" style="rounded=1;whiteSpace=wrap;html=1;labelBackgroundColor=none;" vertex="1" parent="1">
          <mxGeometry x="405" y="1095" width="70" height="40" as="geometry" />
        </mxCell>
        <mxCell id="l-j2LELEC0PF97M8og0z-183" value="" style="ellipse;html=1;shape=endState;fillColor=#000000;strokeColor=#ff0000;" vertex="1" parent="1">
          <mxGeometry x="575" y="1100" width="30" height="30" as="geometry" />
        </mxCell>
      </root>
    </mxGraphModel>
  </diagram>
</mxfile>
